<?xml version="1.0" encoding="UTF-8"?>
<svg xmlns="http://www.w3.org/2000/svg" xmlns:xlink="http://www.w3.org/1999/xlink" width="44px" height="48px" viewBox="0 0 44 47" version="1.1">
<g id="surface1">
<path style=" stroke:none;fill-rule:nonzero;fill:rgb(100%,100%,100%);fill-opacity:1;" d="M 25.925781 29.210938 L 24.875 30.21875 L 24.09375 29.421875 L 25.144531 28.414062 C 24.929688 28.332031 24.6875 28.304688 24.46875 28.332031 C 24.117188 28.332031 23.769531 28.464844 23.5 28.730469 C 23.09375 29.128906 22.957031 29.6875 23.121094 30.191406 L 22.660156 30.644531 L 21.203125 32.078125 L 20.582031 32.660156 C 20.230469 32.609375 19.855469 32.714844 19.558594 32.980469 C 19.097656 33.429688 19.097656 34.175781 19.558594 34.625 C 20.015625 35.078125 20.773438 35.078125 21.230469 34.625 C 21.527344 34.332031 21.636719 33.9375 21.554688 33.589844 L 22.09375 33.058594 L 23.550781 31.625 L 24.039062 31.148438 C 24.550781 31.308594 25.117188 31.199219 25.523438 30.800781 C 25.792969 30.535156 25.953125 30.191406 25.953125 29.847656 C 26.035156 29.660156 26.007812 29.421875 25.925781 29.210938 Z M 20.421875 34.226562 C 20.203125 34.226562 20.015625 34.042969 20.015625 33.828125 C 20.015625 33.617188 20.203125 33.429688 20.421875 33.429688 C 20.636719 33.429688 20.824219 33.617188 20.824219 33.828125 C 20.824219 34.042969 20.636719 34.226562 20.421875 34.226562 Z M 20.421875 34.226562 "/>
<path style=" stroke:none;fill-rule:nonzero;fill:rgb(100%,100%,100%);fill-opacity:1;" d="M 25.253906 33.40625 L 23.578125 31.625 L 22.632812 30.644531 L 21.070312 28.96875 C 21.042969 28.945312 21.015625 28.917969 20.960938 28.890625 L 19.289062 28.332031 C 19.207031 28.304688 19.152344 28.332031 19.070312 28.386719 C 19.015625 28.4375 18.988281 28.519531 19.015625 28.570312 L 19.503906 30.269531 C 19.503906 30.324219 19.53125 30.351562 19.558594 30.378906 L 21.175781 32.101562 L 22.121094 33.085938 L 23.742188 34.785156 C 23.957031 34.996094 24.28125 35.023438 24.496094 34.8125 L 25.253906 34.121094 C 25.441406 33.9375 25.441406 33.617188 25.253906 33.40625 Z M 19.800781 30.003906 L 19.585938 29.15625 L 19.960938 28.8125 L 20.796875 29.078125 Z M 21.042969 29.765625 C 21.015625 29.738281 21.015625 29.6875 21.042969 29.660156 L 21.097656 29.605469 C 21.121094 29.582031 21.175781 29.582031 21.203125 29.605469 L 24.226562 32.820312 C 24.253906 32.847656 24.253906 32.898438 24.226562 32.925781 L 24.171875 32.980469 C 24.144531 33.007812 24.09375 33.007812 24.066406 32.980469 Z M 24.847656 33.910156 L 24.363281 34.359375 C 24.226562 34.492188 24.011719 34.464844 23.875 34.332031 L 23.578125 34.015625 L 24.550781 33.113281 L 24.847656 33.429688 C 24.984375 33.589844 24.984375 33.804688 24.847656 33.910156 Z M 24.847656 33.910156 "/>
<path style=" stroke:none;fill-rule:nonzero;fill:rgb(100%,100%,100%);fill-opacity:1;" d="M 28.492188 29.261719 C 28.492188 29.496094 28.296875 29.6875 28.058594 29.6875 C 27.820312 29.6875 27.628906 29.496094 27.628906 29.261719 C 27.628906 29.027344 27.820312 28.835938 28.058594 28.835938 C 28.296875 28.835938 28.492188 29.027344 28.492188 29.261719 Z M 28.492188 29.261719 "/>
<path style=" stroke:none;fill-rule:nonzero;fill:rgb(100%,100%,100%);fill-opacity:1;" d="M 27.304688 27.109375 C 27.304688 27.347656 27.109375 27.535156 26.871094 27.535156 C 26.632812 27.535156 26.441406 27.347656 26.441406 27.109375 C 26.441406 26.875 26.632812 26.6875 26.871094 26.6875 C 27.109375 26.6875 27.304688 26.875 27.304688 27.109375 Z M 27.304688 27.109375 "/>
<path style=" stroke:none;fill-rule:nonzero;fill:rgb(100%,100%,100%);fill-opacity:1;" d="M 18.855469 26.953125 C 18.855469 27.1875 18.660156 27.375 18.421875 27.375 C 18.183594 27.375 17.992188 27.1875 17.992188 26.953125 C 17.992188 26.71875 18.183594 26.527344 18.421875 26.527344 C 18.660156 26.527344 18.855469 26.71875 18.855469 26.953125 Z M 18.855469 26.953125 "/>
<path style=" stroke:none;fill-rule:nonzero;fill:rgb(100%,100%,100%);fill-opacity:1;" d="M 17.425781 29.050781 C 17.425781 29.285156 17.230469 29.472656 16.992188 29.472656 C 16.753906 29.472656 16.5625 29.285156 16.5625 29.050781 C 16.5625 28.816406 16.753906 28.625 16.992188 28.625 C 17.230469 28.625 17.425781 28.816406 17.425781 29.050781 Z M 17.425781 29.050781 "/>
<path style=" stroke:none;fill-rule:nonzero;fill:rgb(100%,100%,100%);fill-opacity:1;" d="M 17.34375 32.34375 C 17.261719 32.34375 17.207031 32.367188 17.128906 32.34375 L 16.964844 32.582031 L 16.722656 32.5 L 16.777344 32.210938 C 16.722656 32.15625 16.667969 32.128906 16.613281 32.078125 L 16.316406 32.15625 L 16.210938 31.945312 L 16.453125 31.785156 C 16.453125 31.707031 16.453125 31.652344 16.453125 31.574219 L 16.210938 31.414062 L 16.289062 31.175781 L 16.585938 31.226562 C 16.640625 31.175781 16.667969 31.121094 16.722656 31.066406 L 16.640625 30.777344 L 16.859375 30.667969 L 17.019531 30.910156 C 17.101562 30.910156 17.15625 30.910156 17.234375 30.910156 L 17.398438 30.667969 L 17.640625 30.75 L 17.585938 31.042969 C 17.640625 31.09375 17.695312 31.121094 17.75 31.175781 L 18.046875 31.09375 L 18.152344 31.308594 L 17.910156 31.464844 C 17.910156 31.546875 17.9375 31.597656 17.910156 31.679688 L 18.152344 31.835938 L 18.074219 32.078125 L 17.777344 32.023438 C 17.722656 32.078125 17.695312 32.128906 17.640625 32.183594 L 17.722656 32.476562 L 17.503906 32.582031 Z M 17.34375 32.34375 "/>
<path style=" stroke:none;fill-rule:nonzero;fill:rgb(100%,100%,100%);fill-opacity:1;" d="M 18.394531 34.414062 C 18.394531 34.648438 18.203125 34.839844 17.964844 34.839844 C 17.726562 34.839844 17.53125 34.648438 17.53125 34.414062 C 17.53125 34.179688 17.726562 33.988281 17.964844 33.988281 C 18.203125 33.988281 18.394531 34.179688 18.394531 34.414062 Z M 18.394531 34.414062 "/>
<path style=" stroke:none;fill-rule:nonzero;fill:rgb(100%,100%,100%);fill-opacity:1;" d="M 19.558594 36.828125 C 19.3125 36.828125 19.125 36.644531 19.125 36.40625 C 19.125 36.167969 19.3125 35.980469 19.558594 35.980469 C 19.800781 35.980469 19.988281 36.167969 19.988281 36.40625 C 19.988281 36.617188 19.800781 36.828125 19.558594 36.828125 Z M 19.558594 36.828125 "/>
<path style=" stroke:none;fill-rule:nonzero;fill:rgb(100%,100%,100%);fill-opacity:1;" d="M 15.265625 15.878906 C 15.210938 15.558594 15.292969 15.242188 15.453125 14.976562 L 14.457031 13.992188 C 14.078125 14.445312 13.835938 15.03125 13.835938 15.667969 C 13.835938 16.304688 14.050781 16.886719 14.457031 17.339844 L 15.453125 16.355469 C 15.371094 16.25 15.292969 16.066406 15.265625 15.878906 Z M 15.265625 15.878906 "/>
<path style=" stroke:none;fill-rule:nonzero;fill:rgb(100%,100%,100%);fill-opacity:1;" d="M 18.261719 17.738281 L 17.261719 16.753906 C 17.101562 16.863281 16.9375 16.914062 16.75 16.941406 C 16.667969 16.941406 16.613281 16.96875 16.535156 16.96875 C 16.265625 16.96875 16.019531 16.886719 15.832031 16.753906 L 14.832031 17.738281 C 15.292969 18.109375 15.886719 18.347656 16.535156 18.347656 C 17.207031 18.347656 17.800781 18.109375 18.261719 17.738281 Z M 18.261719 17.738281 "/>
<path style=" stroke:none;fill-rule:nonzero;fill:rgb(100%,100%,100%);fill-opacity:1;" d="M 28.492188 13.039062 C 27.683594 13.039062 26.925781 13.410156 26.441406 13.96875 L 30.542969 13.96875 C 30.058594 13.410156 29.300781 13.039062 28.492188 13.039062 Z M 28.492188 13.039062 "/>
<path style=" stroke:none;fill-rule:nonzero;fill:rgb(100%,100%,100%);fill-opacity:1;" d="M 16.34375 14.417969 C 16.695312 14.367188 16.992188 14.445312 17.261719 14.605469 L 18.261719 13.621094 C 17.800781 13.25 17.207031 13.011719 16.5625 13.011719 C 15.914062 13.011719 15.320312 13.222656 14.859375 13.621094 L 15.859375 14.605469 C 15.992188 14.523438 16.15625 14.445312 16.34375 14.417969 Z M 16.34375 14.417969 "/>
<path style=" stroke:none;fill-rule:nonzero;fill:rgb(100%,100%,100%);fill-opacity:1;" d="M 17.855469 15.480469 C 17.910156 15.800781 17.828125 16.117188 17.667969 16.382812 L 18.667969 17.367188 C 19.042969 16.914062 19.289062 16.332031 19.289062 15.691406 C 19.289062 15.054688 19.070312 14.472656 18.667969 14.019531 L 17.667969 15.003906 C 17.75 15.136719 17.828125 15.292969 17.855469 15.480469 Z M 17.855469 15.480469 "/>
<path style=" stroke:none;fill-rule:nonzero;fill:rgb(100%,100%,100%);fill-opacity:1;" d="M 16.5625 14.921875 C 16.535156 14.921875 16.480469 14.921875 16.453125 14.921875 C 16.019531 14.976562 15.75 15.375 15.804688 15.800781 C 15.859375 16.199219 16.265625 16.488281 16.695312 16.4375 C 16.910156 16.410156 17.074219 16.304688 17.207031 16.144531 C 17.316406 15.984375 17.371094 15.773438 17.34375 15.585938 C 17.261719 15.214844 16.9375 14.921875 16.5625 14.921875 Z M 16.5625 14.921875 "/>
<path style=" stroke:none;fill-rule:nonzero;fill:rgb(100%,100%,100%);fill-opacity:1;" d="M 26.089844 14.5 C 25.953125 14.789062 25.847656 15.082031 25.820312 15.425781 L 31.191406 15.425781 C 31.164062 15.109375 31.054688 14.789062 30.921875 14.5 Z M 26.089844 14.5 "/>
<path style=" stroke:none;fill-rule:nonzero;fill:rgb(100%,100%,100%);fill-opacity:1;" d="M 28.492188 18.347656 C 29.300781 18.347656 30.058594 17.976562 30.542969 17.417969 L 26.441406 17.417969 C 26.925781 17.976562 27.683594 18.347656 28.492188 18.347656 Z M 28.492188 18.347656 "/>
<path style=" stroke:none;fill-rule:nonzero;fill:rgb(39.607843%,17.647059%,53.72549%);fill-opacity:1;" d="M 31.328125 36.085938 C 31.433594 35.980469 31.515625 35.875 31.625 35.769531 C 31.542969 35.875 31.433594 35.953125 31.328125 36.035156 Z M 31.328125 36.085938 "/>
<path style=" stroke:none;fill-rule:nonzero;fill:rgb(39.607843%,17.647059%,53.72549%);fill-opacity:1;" d="M 31.625 35.742188 C 31.703125 35.636719 31.785156 35.554688 31.867188 35.449219 C 31.785156 35.554688 31.703125 35.660156 31.625 35.742188 Z M 31.625 35.742188 "/>
<path style=" stroke:none;fill-rule:nonzero;fill:rgb(100%,100%,100%);fill-opacity:1;" d="M 26.089844 16.886719 L 30.894531 16.886719 C 31.03125 16.597656 31.136719 16.304688 31.164062 15.957031 L 25.792969 15.957031 C 25.847656 16.277344 25.925781 16.597656 26.089844 16.886719 Z M 26.089844 16.886719 "/>
<path style=" stroke:none;fill-rule:nonzero;fill:rgb(100%,100%,100%);fill-opacity:1;" d="M 29.140625 31.148438 L 28.816406 30.644531 C 28.4375 30.722656 28.085938 30.882812 27.761719 31.09375 L 27.925781 31.679688 C 27.710938 31.835938 27.519531 32.023438 27.359375 32.261719 L 26.765625 32.128906 C 26.546875 32.476562 26.414062 32.820312 26.332031 33.191406 L 26.84375 33.511719 C 26.820312 33.777344 26.820312 34.042969 26.871094 34.308594 L 26.359375 34.625 C 26.441406 34.996094 26.601562 35.34375 26.820312 35.660156 L 27.414062 35.503906 C 27.492188 35.636719 27.65625 35.792969 27.84375 35.925781 C 28.085938 35.554688 28.328125 35.15625 28.574219 34.785156 C 28.328125 34.519531 28.195312 34.199219 28.195312 33.828125 C 28.195312 33.058594 28.816406 32.449219 29.570312 32.421875 C 29.679688 31.996094 29.789062 31.546875 29.816406 31.121094 C 29.597656 31.121094 29.273438 31.121094 29.140625 31.148438 Z M 29.140625 31.148438 "/>
<path style=" stroke:none;fill-rule:nonzero;fill:rgb(39.607843%,17.647059%,53.72549%);fill-opacity:1;" d="M 20.773438 38.792969 C 20.746094 38.820312 20.554688 38.953125 20.773438 38.792969 C 20.773438 38.820312 20.773438 38.820312 20.773438 38.792969 Z M 20.773438 38.792969 "/>
<path style=" stroke:none;fill-rule:nonzero;fill:rgb(39.607843%,17.647059%,53.72549%);fill-opacity:1;" d="M 20.152344 39.378906 C 20.203125 39.351562 20.257812 39.273438 20.152344 39.378906 Z M 20.152344 39.378906 "/>
<path style=" stroke:none;fill-rule:nonzero;fill:rgb(100%,100%,100%);fill-opacity:1;" d="M 24.363281 38.847656 C 24.363281 38.847656 24.550781 39.007812 24.363281 38.847656 L 24.632812 37.625 L 23.6875 37.226562 L 23.011719 38.265625 C 22.714844 38.210938 22.417969 38.210938 22.121094 38.265625 L 21.472656 37.226562 L 20.527344 37.601562 L 20.796875 38.792969 C 20.582031 38.953125 20.367188 39.140625 20.203125 39.378906 L 21.097656 40.175781 C 21.417969 39.722656 21.960938 39.40625 22.554688 39.40625 C 23.175781 39.40625 23.6875 39.699219 24.011719 40.148438 L 24.902344 39.351562 C 24.738281 39.191406 24.550781 39.007812 24.363281 38.847656 Z M 24.363281 38.847656 "/>
<path style=" stroke:none;fill-rule:nonzero;fill:rgb(39.607843%,17.647059%,53.72549%);fill-opacity:1;" d="M 25.496094 40.8125 C 25.523438 41.050781 25.496094 40.8125 25.496094 40.8125 Z M 25.496094 40.8125 "/>
<path style=" stroke:none;fill-rule:nonzero;fill:rgb(100%,100%,100%);fill-opacity:1;" d="M 33.945312 18.90625 C 34.511719 17.976562 34.835938 16.886719 34.835938 15.71875 C 34.835938 15.691406 34.835938 15.691406 34.835938 15.667969 C 34.835938 9.480469 36.160156 6.054688 36.160156 6.054688 L 35.863281 6.054688 C 33.160156 6.054688 30.488281 6.636719 28.304688 7.648438 C 26.628906 6.480469 24.632812 5.84375 22.527344 5.84375 C 20.449219 5.84375 18.449219 6.480469 16.777344 7.675781 C 14.5625 6.636719 11.890625 6.054688 9.191406 6.054688 L 8.894531 6.054688 C 8.894531 6.054688 10.21875 9.480469 10.21875 15.667969 C 10.21875 15.691406 10.21875 15.691406 10.21875 15.71875 C 10.21875 16.886719 10.542969 17.976562 11.109375 18.90625 C 5.519531 25.890625 10.917969 35.371094 19.53125 41 C 19.960938 41.289062 20.394531 41.554688 20.851562 41.820312 C 21.394531 42.140625 21.960938 42.460938 22.527344 42.726562 C 23.09375 42.433594 23.660156 42.113281 24.199219 41.796875 C 24.632812 41.53125 25.0625 41.265625 25.496094 41 C 27.277344 39.832031 28.949219 38.503906 30.382812 37.042969 C 30.707031 36.722656 31.003906 36.40625 31.300781 36.058594 L 31.273438 36.007812 C 31.378906 35.925781 31.488281 35.847656 31.570312 35.742188 C 31.570312 35.742188 31.570312 35.714844 31.597656 35.714844 C 31.675781 35.636719 31.757812 35.527344 31.839844 35.421875 C 32.136719 35.078125 32.40625 34.730469 32.675781 34.386719 C 36.480469 29.394531 37.695312 23.578125 33.945312 18.90625 Z M 22.527344 6.585938 C 24.335938 6.585938 26.035156 7.089844 27.519531 8.046875 C 27.386719 8.125 27.25 8.179688 27.140625 8.257812 C 24.984375 9.53125 23.253906 11.363281 22.527344 13.570312 C 21.796875 11.363281 20.070312 9.53125 17.910156 8.257812 C 17.800781 8.179688 17.667969 8.125 17.558594 8.074219 C 19.015625 7.117188 20.746094 6.585938 22.527344 6.585938 Z M 24.039062 24.617188 C 23.847656 24.90625 23.523438 25.171875 23.203125 25.304688 C 22.742188 25.492188 22.308594 25.492188 21.851562 25.304688 C 21.394531 25.121094 21.015625 24.746094 20.824219 24.296875 C 21.367188 24.191406 21.933594 24.109375 22.5 24.109375 C 23.09375 24.109375 23.660156 24.164062 24.199219 24.296875 C 24.171875 24.402344 24.117188 24.507812 24.039062 24.617188 C 24.066406 24.589844 24.011719 24.640625 24.039062 24.617188 Z M 23.472656 22.121094 C 22.984375 22.625 22.527344 22.96875 22.527344 22.96875 C 22.527344 22.96875 22.066406 22.625 21.582031 22.121094 C 21.070312 21.5625 20.527344 20.84375 20.527344 20.101562 L 20.824219 19.757812 L 22.527344 17.710938 L 24.253906 19.757812 L 24.550781 20.101562 C 24.523438 20.816406 23.984375 21.5625 23.472656 22.121094 Z M 14.671875 20.394531 L 14.238281 20.207031 C 14.105469 20.152344 14.023438 19.96875 14.078125 19.835938 L 14.265625 19.410156 C 14.292969 19.359375 14.320312 19.332031 14.347656 19.304688 C 14.078125 19.144531 13.835938 18.960938 13.589844 18.746094 C 13.5625 18.800781 13.539062 18.828125 13.511719 18.851562 L 13.160156 19.144531 C 13.023438 19.25 12.835938 19.226562 12.753906 19.117188 L 12.429688 18.746094 C 12.324219 18.613281 12.351562 18.429688 12.457031 18.347656 L 12.808594 18.054688 C 12.835938 18.03125 12.890625 18.003906 12.945312 18.003906 C 12.78125 17.738281 12.621094 17.472656 12.511719 17.207031 C 12.484375 17.234375 12.429688 17.261719 12.402344 17.261719 L 11.945312 17.339844 C 11.78125 17.367188 11.621094 17.285156 11.59375 17.128906 L 11.484375 16.675781 C 11.457031 16.515625 11.539062 16.355469 11.703125 16.332031 L 12.160156 16.222656 C 12.214844 16.222656 12.242188 16.222656 12.296875 16.222656 C 12.269531 15.933594 12.242188 15.613281 12.269531 15.320312 C 12.214844 15.320312 12.1875 15.320312 12.132812 15.320312 L 11.675781 15.214844 C 11.511719 15.1875 11.40625 15.03125 11.433594 14.871094 L 11.539062 14.417969 C 11.566406 14.257812 11.730469 14.152344 11.890625 14.207031 L 12.351562 14.3125 C 12.375 14.3125 12.429688 14.339844 12.457031 14.367188 C 12.539062 14.101562 12.671875 13.859375 12.808594 13.59375 C 12.808594 13.570312 12.835938 13.570312 12.835938 13.542969 C 12.808594 13.542969 12.753906 13.515625 12.726562 13.488281 L 12.351562 13.195312 C 12.214844 13.089844 12.1875 12.90625 12.296875 12.800781 L 12.59375 12.425781 C 12.699219 12.292969 12.890625 12.269531 12.996094 12.375 L 13.375 12.667969 C 13.402344 12.691406 13.429688 12.71875 13.457031 12.746094 C 13.671875 12.535156 13.914062 12.347656 14.160156 12.1875 C 14.132812 12.160156 14.105469 12.136719 14.105469 12.109375 L 13.886719 11.683594 C 13.808594 11.550781 13.886719 11.363281 14.023438 11.285156 L 14.457031 11.074219 C 14.589844 10.992188 14.777344 11.074219 14.859375 11.207031 L 15.074219 11.628906 C 15.101562 11.65625 15.101562 11.683594 15.101562 11.738281 C 15.398438 11.628906 15.695312 11.578125 15.992188 11.523438 C 15.992188 11.496094 15.96875 11.472656 15.96875 11.417969 L 15.96875 10.964844 C 15.96875 10.808594 16.101562 10.675781 16.265625 10.675781 L 16.804688 10.675781 C 16.964844 10.675781 17.101562 10.808594 17.101562 10.964844 L 17.101562 11.417969 C 17.101562 11.445312 17.101562 11.472656 17.074219 11.496094 C 17.289062 11.523438 17.480469 11.550781 17.695312 11.605469 C 17.695312 11.578125 17.695312 11.550781 17.722656 11.523438 L 17.910156 11.097656 C 17.964844 10.941406 18.152344 10.886719 18.289062 10.941406 L 18.746094 11.125 C 18.910156 11.179688 18.964844 11.363281 18.910156 11.496094 L 18.691406 11.894531 C 18.691406 11.921875 18.667969 11.949219 18.640625 11.976562 C 18.667969 12.003906 18.691406 12.003906 18.71875 12.003906 C 18.964844 12.136719 19.207031 12.292969 19.394531 12.480469 C 19.421875 12.453125 19.421875 12.425781 19.449219 12.402344 L 19.800781 12.082031 C 19.933594 11.976562 20.125 11.976562 20.230469 12.109375 L 20.554688 12.453125 C 20.664062 12.558594 20.664062 12.746094 20.527344 12.851562 L 20.179688 13.171875 C 20.152344 13.195312 20.125 13.195312 20.097656 13.222656 C 20.285156 13.460938 20.421875 13.726562 20.527344 14.019531 C 20.554688 13.992188 20.582031 13.992188 20.609375 13.96875 L 21.070312 13.835938 C 21.230469 13.78125 21.394531 13.886719 21.445312 14.046875 L 21.582031 14.5 C 21.636719 14.65625 21.527344 14.816406 21.367188 14.871094 L 20.90625 15.003906 C 20.878906 15.003906 20.851562 15.003906 20.796875 15.003906 C 20.851562 15.292969 20.851562 15.585938 20.851562 15.90625 C 20.878906 15.90625 20.933594 15.90625 20.960938 15.90625 L 21.417969 15.984375 C 21.582031 16.011719 21.691406 16.171875 21.664062 16.332031 L 21.582031 16.808594 C 21.554688 16.96875 21.394531 17.074219 21.230469 17.046875 L 20.773438 16.96875 C 20.746094 16.96875 20.691406 16.941406 20.664062 16.941406 C 20.582031 17.234375 20.449219 17.5 20.3125 17.765625 C 20.339844 17.765625 20.394531 17.789062 20.421875 17.816406 L 20.796875 18.082031 C 20.933594 18.1875 20.960938 18.347656 20.851562 18.480469 L 20.582031 18.851562 C 20.476562 18.984375 20.285156 19.011719 20.179688 18.90625 L 19.800781 18.640625 C 19.773438 18.613281 19.746094 18.585938 19.71875 18.5625 C 19.503906 18.773438 19.261719 18.984375 19.015625 19.144531 C 19.042969 19.171875 19.070312 19.199219 19.097656 19.226562 L 19.3125 19.625 C 19.394531 19.757812 19.339844 19.941406 19.179688 20.019531 L 18.746094 20.234375 C 18.613281 20.3125 18.421875 20.261719 18.34375 20.101562 L 18.125 19.703125 C 18.097656 19.675781 18.097656 19.625 18.097656 19.597656 C 17.800781 19.703125 17.503906 19.78125 17.207031 19.835938 C 17.234375 19.863281 17.234375 19.914062 17.234375 19.96875 L 17.261719 20.417969 C 17.261719 20.578125 17.128906 20.710938 16.964844 20.710938 L 16.480469 20.738281 C 16.316406 20.738281 16.183594 20.605469 16.183594 20.445312 L 16.15625 19.996094 C 16.15625 19.941406 16.15625 19.914062 16.183594 19.863281 C 15.886719 19.835938 15.5625 19.78125 15.265625 19.675781 C 15.265625 19.730469 15.265625 19.757812 15.238281 19.808594 L 15.050781 20.234375 C 14.996094 20.394531 14.804688 20.445312 14.671875 20.394531 Z M 25.496094 40.8125 C 25.496094 40.8125 25.523438 41.050781 25.496094 40.8125 Z M 29.789062 31.148438 C 29.734375 31.597656 29.652344 32.023438 29.542969 32.449219 C 29.328125 33.273438 28.976562 34.070312 28.546875 34.8125 C 28.328125 35.210938 28.085938 35.582031 27.816406 35.953125 C 26.953125 37.226562 25.902344 38.398438 24.984375 39.300781 L 24.902344 39.378906 L 24.011719 40.175781 C 23.148438 40.945312 22.554688 41.371094 22.554688 41.398438 C 22.527344 41.398438 21.933594 40.945312 21.097656 40.175781 L 20.203125 39.378906 C 20.203125 39.378906 20.179688 39.40625 20.179688 39.40625 C 20.179688 39.40625 20.179688 39.40625 20.203125 39.378906 L 20.125 39.300781 C 17.992188 37.226562 15.292969 33.882812 15.292969 30.457031 C 15.292969 28.4375 16.535156 26.367188 18.613281 25.171875 C 18.71875 25.4375 18.855469 25.675781 18.988281 25.917969 L 19.746094 25.730469 C 19.960938 25.996094 20.203125 26.234375 20.476562 26.449219 L 20.3125 27.191406 C 20.339844 27.21875 20.394531 27.242188 20.421875 27.242188 C 20.5 27.296875 20.554688 27.324219 20.636719 27.375 C 20.664062 27.375 20.664062 27.402344 20.691406 27.402344 C 20.796875 27.457031 20.878906 27.507812 20.988281 27.535156 C 21.203125 27.617188 21.445312 27.695312 21.664062 27.75 L 22.066406 27.085938 C 22.417969 27.136719 22.769531 27.136719 23.121094 27.085938 L 23.523438 27.722656 C 24.011719 27.617188 24.46875 27.429688 24.902344 27.164062 L 24.710938 26.421875 C 24.984375 26.207031 25.226562 25.96875 25.441406 25.703125 L 26.199219 25.863281 C 26.222656 25.835938 26.25 25.785156 26.25 25.757812 C 26.304688 25.675781 26.332031 25.625 26.386719 25.542969 C 26.386719 25.519531 26.414062 25.519531 26.414062 25.492188 C 26.46875 25.386719 26.519531 25.304688 26.546875 25.199219 C 28.601562 26.421875 29.839844 28.492188 29.839844 30.484375 C 29.816406 30.695312 29.816406 30.910156 29.789062 31.148438 Z M 33.539062 16.78125 C 33.511719 16.941406 33.351562 17.046875 33.1875 17.019531 L 32.730469 16.941406 C 32.703125 16.941406 32.648438 16.914062 32.621094 16.914062 C 32.542969 17.207031 32.40625 17.472656 32.269531 17.738281 C 32.296875 17.738281 32.351562 17.765625 32.378906 17.789062 L 32.757812 18.054688 C 32.890625 18.164062 32.917969 18.320312 32.8125 18.453125 L 32.515625 18.828125 C 32.40625 18.960938 32.21875 18.984375 32.109375 18.878906 L 31.730469 18.613281 C 31.703125 18.585938 31.675781 18.5625 31.648438 18.535156 C 31.433594 18.746094 31.191406 18.960938 30.949219 19.117188 C 30.976562 19.144531 31.003906 19.171875 31.03125 19.199219 L 31.246094 19.597656 C 31.328125 19.730469 31.273438 19.914062 31.109375 19.996094 L 30.679688 20.207031 C 30.542969 20.285156 30.355469 20.234375 30.273438 20.074219 L 30.058594 19.675781 C 30.03125 19.648438 30.03125 19.597656 30.03125 19.570312 C 29.734375 19.675781 29.4375 19.757812 29.140625 19.808594 C 29.167969 19.835938 29.167969 19.890625 29.167969 19.941406 L 29.195312 20.394531 C 29.195312 20.550781 29.058594 20.683594 28.898438 20.683594 L 28.410156 20.710938 C 28.25 20.710938 28.113281 20.578125 28.113281 20.417969 L 28.085938 19.96875 C 28.085938 19.914062 28.085938 19.890625 28.113281 19.835938 C 27.816406 19.808594 27.492188 19.757812 27.195312 19.648438 C 27.195312 19.703125 27.195312 19.730469 27.167969 19.78125 L 26.980469 20.207031 C 26.925781 20.339844 26.738281 20.417969 26.574219 20.367188 L 26.144531 20.179688 C 26.007812 20.128906 25.925781 19.941406 25.980469 19.808594 L 26.171875 19.382812 C 26.199219 19.332031 26.222656 19.304688 26.25 19.277344 C 25.980469 19.117188 25.738281 18.933594 25.496094 18.71875 C 25.46875 18.773438 25.441406 18.800781 25.414062 18.828125 L 25.0625 19.117188 C 24.929688 19.226562 24.738281 19.199219 24.632812 19.09375 L 24.363281 18.746094 C 24.253906 18.613281 24.28125 18.453125 24.390625 18.347656 L 24.738281 18.054688 C 24.765625 18.03125 24.820312 18.003906 24.875 18.003906 C 24.710938 17.738281 24.550781 17.472656 24.441406 17.207031 C 24.414062 17.234375 24.363281 17.261719 24.335938 17.261719 L 23.875 17.367188 C 23.714844 17.394531 23.550781 17.3125 23.523438 17.152344 L 23.417969 16.703125 C 23.390625 16.542969 23.472656 16.382812 23.632812 16.355469 L 24.09375 16.25 C 24.144531 16.25 24.171875 16.25 24.226562 16.25 C 24.199219 15.957031 24.171875 15.640625 24.199219 15.347656 C 24.144531 15.347656 24.117188 15.347656 24.066406 15.347656 L 23.605469 15.242188 C 23.445312 15.214844 23.335938 15.054688 23.363281 14.898438 L 23.472656 14.445312 C 23.5 14.285156 23.660156 14.179688 23.820312 14.234375 L 24.28125 14.339844 C 24.308594 14.339844 24.363281 14.367188 24.390625 14.390625 C 24.46875 14.125 24.605469 13.886719 24.738281 13.621094 C 24.738281 13.59375 24.765625 13.59375 24.765625 13.570312 C 24.738281 13.570312 24.6875 13.542969 24.660156 13.515625 L 24.28125 13.222656 C 24.144531 13.117188 24.117188 12.929688 24.226562 12.824219 L 24.523438 12.453125 C 24.632812 12.320312 24.820312 12.292969 24.929688 12.402344 L 25.308594 12.691406 C 25.332031 12.71875 25.359375 12.746094 25.386719 12.773438 C 25.605469 12.558594 25.847656 12.375 26.089844 12.214844 C 26.0625 12.1875 26.035156 12.160156 26.035156 12.136719 L 25.820312 11.710938 C 25.738281 11.578125 25.820312 11.390625 25.953125 11.3125 L 26.386719 11.097656 C 26.519531 11.019531 26.710938 11.097656 26.792969 11.230469 L 27.007812 11.65625 C 27.035156 11.683594 27.035156 11.710938 27.035156 11.761719 C 27.332031 11.65625 27.628906 11.605469 27.925781 11.550781 C 27.925781 11.523438 27.898438 11.496094 27.898438 11.445312 L 27.898438 10.992188 C 27.898438 10.832031 28.03125 10.699219 28.195312 10.699219 L 28.679688 10.699219 C 28.84375 10.699219 28.976562 10.832031 28.976562 10.992188 L 28.976562 11.445312 C 28.976562 11.472656 28.976562 11.496094 28.949219 11.523438 C 29.167969 11.550781 29.355469 11.578125 29.542969 11.628906 C 29.542969 11.605469 29.542969 11.578125 29.570312 11.550781 L 29.761719 11.125 C 29.816406 10.964844 30.003906 10.914062 30.136719 10.964844 L 30.597656 11.152344 C 30.757812 11.207031 30.8125 11.390625 30.757812 11.523438 L 30.570312 11.949219 C 30.570312 11.976562 30.542969 12.003906 30.515625 12.027344 C 30.542969 12.054688 30.570312 12.054688 30.597656 12.054688 C 30.839844 12.1875 31.082031 12.347656 31.273438 12.535156 C 31.300781 12.507812 31.300781 12.480469 31.328125 12.453125 L 31.675781 12.136719 C 31.785156 12.027344 32 12.027344 32.109375 12.160156 L 32.433594 12.507812 C 32.542969 12.613281 32.542969 12.800781 32.40625 12.90625 L 32.054688 13.222656 C 32.027344 13.25 32 13.25 31.972656 13.277344 C 32.164062 13.515625 32.296875 13.78125 32.40625 14.074219 C 32.433594 14.046875 32.460938 14.046875 32.488281 14.019531 L 32.945312 13.886719 C 33.109375 13.835938 33.269531 13.941406 33.324219 14.101562 L 33.457031 14.550781 C 33.511719 14.710938 33.40625 14.871094 33.242188 14.898438 L 32.785156 15.03125 C 32.757812 15.03125 32.730469 15.03125 32.675781 15.03125 C 32.730469 15.320312 32.730469 15.613281 32.730469 15.933594 C 32.757812 15.933594 32.785156 15.933594 32.839844 15.933594 L 33.296875 16.011719 C 33.457031 16.039062 33.566406 16.199219 33.539062 16.355469 Z M 33.539062 16.78125 "/>
</g>
</svg>
